<svg width="32" height="32" viewBox="0 0 32 32" fill="none" xmlns="http://www.w3.org/2000/svg">
<g clip-path="url(#clip0_326_6)">
<path d="M17.3569 5.89479C16.5012 5.89427 15.6494 6.00905 14.8244 6.23604C14.4987 5.70467 14.1031 5.21949 13.6481 4.79354L14.8369 3.09729C14.9122 2.98969 14.9656 2.8683 14.9941 2.74005C15.0225 2.61181 15.0254 2.47922 15.0026 2.34986C14.9798 2.22049 14.9317 2.09689 14.8611 1.9861C14.7905 1.87531 14.6988 1.77951 14.5912 1.70416C14.4836 1.62882 14.3622 1.5754 14.234 1.54697C14.1058 1.51854 13.9732 1.51564 13.8438 1.53845C13.7144 1.56126 13.5908 1.60932 13.48 1.6799C13.3693 1.75048 13.2735 1.84219 13.1981 1.94979L12.0094 3.64479C11.0318 3.15121 9.95195 2.8943 8.85686 2.89479C8.78436 2.89479 8.71186 2.89479 8.63936 2.89479L8.27811 0.858539C8.25915 0.725858 8.21371 0.598343 8.1445 0.483571C8.07528 0.368799 7.9837 0.269112 7.8752 0.190434C7.76669 0.111755 7.64348 0.0556917 7.51288 0.0255743C7.38228 -0.00454308 7.24696 -0.00809974 7.11495 0.0151159C6.98295 0.0383315 6.85696 0.0878454 6.74447 0.160715C6.63199 0.233585 6.5353 0.328325 6.46015 0.439303C6.385 0.550281 6.33292 0.675233 6.30702 0.806734C6.28112 0.938235 6.28191 1.0736 6.30936 1.20479L6.66936 3.24729C5.5603 3.61411 4.56045 4.25218 3.76061 5.10354L2.05811 3.91229C1.9506 3.83509 1.82882 3.78001 1.69986 3.75023C1.57089 3.72045 1.43729 3.71657 1.30681 3.73881C1.17634 3.76106 1.05157 3.80898 0.939758 3.87981C0.827942 3.95064 0.7313 4.04296 0.655435 4.15142C0.57957 4.25988 0.525992 4.38232 0.497807 4.51165C0.469622 4.64097 0.467392 4.77461 0.491245 4.9048C0.515098 5.03499 0.56456 5.15916 0.636763 5.27009C0.708965 5.38102 0.802473 5.47652 0.911862 5.55104L2.60686 6.74104C2.11154 7.71839 1.85453 8.79909 1.85686 9.89479C1.85686 9.96604 1.85686 10.0385 1.85686 10.1098L-0.179388 10.4698C-0.425855 10.513 -0.647179 10.647 -0.799672 10.8454C-0.952164 11.0437 -1.02474 11.2921 -1.00308 11.5414C-0.981416 11.7906 -0.867086 12.0227 -0.682659 12.1919C-0.498231 12.361 -0.257108 12.4548 -0.00688821 12.4548C0.0513484 12.4547 0.109473 12.4497 0.166862 12.4398L2.20686 12.0798C2.3861 12.6255 2.63213 13.147 2.93936 13.6323C1.98285 14.5207 1.31603 15.6766 1.02574 16.9494C0.735445 18.2222 0.835135 19.5529 1.31183 20.7682C1.78852 21.9836 2.62012 23.0272 3.69832 23.7632C4.77653 24.4993 6.05139 24.8936 7.35686 24.8948H17.3569C19.8764 24.8948 22.2928 23.8939 24.0744 22.1123C25.856 20.3307 26.8569 17.9143 26.8569 15.3948C26.8569 12.8752 25.856 10.4589 24.0744 8.67727C22.2928 6.89568 19.8764 5.89479 17.3569 5.89479ZM3.85686 9.89479C3.85746 8.83586 4.19424 7.80446 4.81867 6.94923C5.44309 6.09399 6.32292 5.45909 7.33136 5.13601C8.3398 4.81293 9.42478 4.81836 10.4299 5.15152C11.4351 5.48467 12.3085 6.12835 12.9244 6.98979C10.8845 8.06329 9.30267 9.8396 8.47186 11.9898C7.15729 11.7629 5.80474 11.9448 4.59686 12.511C4.11327 11.7241 3.85713 10.8185 3.85686 9.89479ZM17.3569 22.8948H7.35686C6.74139 22.8937 6.1327 22.7663 5.56841 22.5205C5.00413 22.2748 4.49626 21.9159 4.07619 21.4661C3.65613 21.0163 3.33281 20.485 3.12622 19.9053C2.91963 19.3255 2.83417 18.7095 2.87511 18.0954C2.91606 17.4813 3.08254 16.8821 3.36427 16.3349C3.646 15.7877 4.03699 15.3041 4.51306 14.914C4.98912 14.524 5.54015 14.2357 6.13206 14.067C6.72397 13.8984 7.34419 13.853 7.95436 13.9335C7.90811 14.2298 7.87561 14.5323 7.85811 14.8373C7.85056 14.9686 7.86895 15.1001 7.91223 15.2243C7.95551 15.3486 8.02283 15.463 8.11035 15.5612C8.19787 15.6594 8.30387 15.7394 8.42231 15.7967C8.54074 15.8539 8.66929 15.8872 8.80061 15.8948C8.93193 15.9023 9.06346 15.884 9.18767 15.8407C9.31189 15.7974 9.42636 15.7301 9.52456 15.6426C9.62276 15.555 9.70276 15.449 9.75999 15.3306C9.81722 15.2122 9.85056 15.0836 9.85811 14.9523C9.88617 14.4535 9.96491 13.9589 10.0931 13.476C10.0931 13.456 10.1044 13.436 10.1081 13.416C10.4757 12.0653 11.2135 10.8443 12.2384 9.89081C13.2632 8.93731 14.5342 8.28933 15.9079 8.02003C17.2815 7.75073 18.7031 7.87084 20.0121 8.3668C21.3211 8.86276 22.4654 9.71481 23.3157 10.8267C24.1661 11.9387 24.6886 13.2662 24.8243 14.6594C24.96 16.0526 24.7035 17.456 24.0838 18.7112C23.464 19.9663 22.5057 21.0232 21.317 21.7624C20.1284 22.5017 18.7567 22.8939 17.3569 22.8948Z" fill="black"/>
</g>
<defs>
<clipPath id="clip0_326_6">
<rect width="32" height="32" fill="white"/>
</clipPath>
</defs>
</svg>
