<svg width="32" height="32" viewBox="0 0 32 32" fill="none" xmlns="http://www.w3.org/2000/svg">
<path d="M18.9933 5C16.9504 5.00157 14.9482 5.57142 13.2107 6.64582C11.4731 7.72023 10.0687 9.25682 9.15453 11.0837C8.06698 10.9251 6.95841 10.9923 5.89797 11.2811C4.83753 11.5699 3.84797 12.0741 2.99101 12.7622C2.13405 13.4504 1.42808 14.3077 0.917118 15.2808C0.406161 16.2538 0.101183 17.3217 0.0212087 18.4179C-0.0587659 19.514 0.0879779 20.6149 0.452287 21.6518C0.816596 22.6887 1.39066 23.6395 2.13866 24.4447C2.88666 25.2499 3.79256 25.8924 4.79985 26.3321C5.80715 26.7717 6.89423 26.9991 7.99328 27H18.9933C21.9107 27 24.7086 25.8411 26.7715 23.7782C28.8344 21.7153 29.9933 18.9174 29.9933 16C29.9933 13.0826 28.8344 10.2847 26.7715 8.22183C24.7086 6.15893 21.9107 5 18.9933 5ZM18.9933 25H7.99328C6.40198 25 4.87586 24.3679 3.75064 23.2426C2.62542 22.1174 1.99328 20.5913 1.99328 19C1.99328 17.4087 2.62542 15.8826 3.75064 14.7574C4.87586 13.6321 6.40198 13 7.99328 13C8.13078 13 8.26828 13 8.40453 13.0138C8.13106 13.9856 7.99268 14.9904 7.99328 16C7.99328 16.2652 8.09864 16.5196 8.28617 16.7071C8.47371 16.8946 8.72806 17 8.99328 17C9.2585 17 9.51285 16.8946 9.70039 16.7071C9.88792 16.5196 9.99328 16.2652 9.99328 16C9.99328 14.22 10.5211 12.4799 11.5101 10.9999C12.499 9.51983 13.9046 8.36627 15.5491 7.68508C17.1937 7.0039 19.0033 6.82567 20.7491 7.17293C22.4949 7.5202 24.0986 8.37737 25.3572 9.63604C26.6159 10.8947 27.4731 12.4984 27.8204 14.2442C28.1676 15.99 27.9894 17.7996 27.3082 19.4442C26.627 21.0887 25.4735 22.4943 23.9934 23.4832C22.5134 24.4722 20.7733 25 18.9933 25Z" fill="black"/>
</svg>
