<svg width="22" height="27" viewBox="0 0 22 27" fill="none" xmlns="http://www.w3.org/2000/svg">
<path d="M17.9862 17.1675C17.7269 18.6159 17.0301 19.9501 15.9896 20.9904C14.949 22.0308 13.6147 22.7273 12.1663 22.9863C12.1113 22.9951 12.0557 22.9997 12 23C11.7492 23 11.5075 22.9056 11.323 22.7357C11.1384 22.5659 11.0245 22.3328 11.0037 22.0828C10.9829 21.8328 11.0569 21.5842 11.2108 21.3862C11.3648 21.1882 11.5876 21.0552 11.835 21.0138C13.9062 20.665 15.6637 18.9075 16.015 16.8325C16.0594 16.571 16.2059 16.3378 16.4223 16.1842C16.6387 16.0307 16.9072 15.9694 17.1688 16.0138C17.4303 16.0582 17.6635 16.2047 17.8171 16.4211C17.9706 16.6375 18.0319 16.906 17.9875 17.1675H17.9862ZM22 16C22 18.9174 20.8411 21.7153 18.7782 23.7782C16.7153 25.8411 13.9174 27 11 27C8.08262 27 5.28473 25.8411 3.22183 23.7782C1.15893 21.7153 0 18.9174 0 16C0 12.51 1.375 8.94129 4.0825 5.39379C4.1682 5.28146 4.27674 5.18857 4.40095 5.12123C4.52516 5.0539 4.66223 5.01365 4.80313 5.00314C4.94403 4.99263 5.08556 5.01209 5.21838 5.06025C5.35121 5.10841 5.47233 5.18417 5.57375 5.28254L8.58875 8.20879L11.3388 0.657542C11.3937 0.506934 11.484 0.371743 11.6022 0.263365C11.7203 0.154988 11.8628 0.0766009 12.0175 0.0348132C12.1723 -0.00697454 12.3349 -0.0109383 12.4915 0.0232561C12.6481 0.0574505 12.7942 0.128801 12.9175 0.231292C15.6512 2.50004 22 8.56879 22 16ZM20 16C20 10.2388 15.5262 5.26004 12.7237 2.70879L9.94 10.3425C9.88287 10.4993 9.78741 10.6393 9.66232 10.7498C9.53723 10.8602 9.38648 10.9376 9.22383 10.9749C9.06117 11.0122 8.89177 11.0082 8.73107 10.9632C8.57036 10.9183 8.42346 10.8338 8.30375 10.7175L5.0075 7.52004C3.01125 10.4013 2 13.25 2 16C2 18.387 2.94821 20.6762 4.63604 22.364C6.32387 24.0518 8.61305 25 11 25C13.3869 25 15.6761 24.0518 17.364 22.364C19.0518 20.6762 20 18.387 20 16Z" fill="black"/>
</svg>
