<svg width="32" height="32" viewBox="0 0 32 32" fill="none" xmlns="http://www.w3.org/2000/svg">
<path d="M30.0001 15.8287C29.7718 13.2111 28.8143 10.7099 27.2363 8.60899C25.6583 6.50805 23.5229 4.89154 21.0726 3.94291C18.6223 2.99427 15.9551 2.7515 13.3737 3.24216C10.7924 3.73281 8.40027 4.93724 6.46887 6.71875C3.89044 9.08751 2.29745 12.3395 2.00637 15.8287C1.98264 16.1049 2.01656 16.383 2.10599 16.6453C2.19543 16.9077 2.33841 17.1486 2.52588 17.3527C2.71334 17.5569 2.9412 17.7198 3.19499 17.8313C3.44877 17.9427 3.72295 18.0001 4.00012 18H15.0001V25C15.0001 26.0609 15.4215 27.0783 16.1717 27.8284C16.9218 28.5786 17.9393 29 19.0001 29C20.061 29 21.0784 28.5786 21.8285 27.8284C22.5787 27.0783 23.0001 26.0609 23.0001 25C23.0001 24.7348 22.8948 24.4804 22.7072 24.2929C22.5197 24.1054 22.2653 24 22.0001 24C21.7349 24 21.4805 24.1054 21.293 24.2929C21.1055 24.4804 21.0001 24.7348 21.0001 25C21.0001 25.5304 20.7894 26.0391 20.4143 26.4142C20.0393 26.7893 19.5306 27 19.0001 27C18.4697 27 17.961 26.7893 17.5859 26.4142C17.2108 26.0391 17.0001 25.5304 17.0001 25V18H28.0001C28.2778 18.001 28.5527 17.9442 28.8072 17.8332C29.0617 17.7221 29.2904 17.5593 29.4785 17.355C29.6666 17.1508 29.8102 16.9096 29.9 16.6468C29.9898 16.384 30.0239 16.1054 30.0001 15.8287ZM4.00012 16C4.22175 13.424 5.26819 10.9881 6.98409 9.05399C8.69998 7.11989 10.9938 5.7907 13.5251 5.26375C12.0601 7.25 10.2314 10.7637 10.0214 16H4.00012ZM12.0189 16C12.1926 12.1537 13.3351 9.39875 14.3064 7.72C14.7853 6.88606 15.3532 6.10651 16.0001 5.395C16.6459 6.10662 17.2125 6.88617 17.6901 7.72C19.3501 10.5875 19.8751 13.66 19.9776 16H12.0189ZM21.9751 16C21.7651 10.7637 19.9364 7.25 18.4751 5.2575C21.0081 5.78328 23.3035 7.11295 25.0198 9.04859C26.736 10.9842 27.7813 13.4223 28.0001 16H21.9751Z" fill="black"/>
</svg>
