<svg width="23" height="29" viewBox="0 0 23 29" fill="none" xmlns="http://www.w3.org/2000/svg">
<path d="M17.5142 5.29611C15.9702 3.5129 14.2324 1.90717 12.3329 0.508606C12.1648 0.39082 11.9645 0.327637 11.7592 0.327637C11.5539 0.327637 11.3536 0.39082 11.1854 0.508606C9.28951 1.90776 7.55509 3.51346 6.01419 5.29611C2.57794 9.24236 0.764191 13.4024 0.764191 17.3274C0.764191 20.2447 1.92312 23.0426 3.98602 25.1055C6.04892 27.1684 8.84681 28.3274 11.7642 28.3274C14.6816 28.3274 17.4795 27.1684 19.5424 25.1055C21.6053 23.0426 22.7642 20.2447 22.7642 17.3274C22.7642 13.4024 20.9504 9.24236 17.5142 5.29611ZM11.7642 26.3274C9.37805 26.3247 7.09041 25.3756 5.40315 23.6884C3.7159 22.0011 2.76684 19.7135 2.76419 17.3274C2.76419 10.1736 9.69794 4.20236 11.7642 2.57736C13.8304 4.20236 20.7642 10.1711 20.7642 17.3274C20.7615 19.7135 19.8125 22.0011 18.1252 23.6884C16.438 25.3756 14.1503 26.3247 11.7642 26.3274ZM18.7504 18.4949C18.4911 19.9432 17.7943 21.2774 16.7537 22.3177C15.7132 23.3581 14.3789 24.0546 12.9304 24.3136C12.8755 24.3224 12.8199 24.327 12.7642 24.3274C12.5134 24.3273 12.2717 24.233 12.0872 24.0631C11.9026 23.8932 11.7886 23.6601 11.7679 23.4101C11.7471 23.1602 11.8211 22.9115 11.975 22.7135C12.129 22.5155 12.3518 22.3826 12.5992 22.3411C14.6704 21.9924 16.4279 20.2349 16.7792 18.1599C16.8236 17.8983 16.9701 17.6651 17.1865 17.5115C17.4029 17.358 17.6714 17.2967 17.9329 17.3411C18.1945 17.3855 18.4277 17.532 18.5813 17.7484C18.7348 17.9648 18.7961 18.2333 18.7517 18.4949H18.7504Z" fill="black"/>
</svg>
