<svg width="25" height="29" viewBox="0 0 25 29" fill="none" xmlns="http://www.w3.org/2000/svg">
<path d="M12.4621 0.216309C9.28062 0.219948 6.23048 1.4854 3.98084 3.73505C1.73119 5.98469 0.465736 9.03483 0.462097 12.2163C0.462097 15.2163 2.0321 19.0988 4.66335 22.5913C7.31085 26.1101 10.2258 28.2163 12.4621 28.2163C14.6983 28.2163 17.6133 26.1151 20.2608 22.5913C22.8921 19.0913 24.4621 15.2163 24.4621 12.2163C24.4585 9.03483 23.193 5.98469 20.9434 3.73505C18.6937 1.4854 15.6436 0.219948 12.4621 0.216309ZM18.6633 21.3938C16.4921 24.2776 14.0008 26.2163 12.4621 26.2163C10.9233 26.2163 8.4321 24.2776 6.26085 21.3938C3.91835 18.2788 2.4621 14.7626 2.4621 12.2163C2.4621 9.56414 3.51567 7.0206 5.39103 5.14524C7.26639 3.26988 9.80993 2.21631 12.4621 2.21631C15.1143 2.21631 17.6578 3.26988 19.5332 5.14524C21.4085 7.0206 22.4621 9.56414 22.4621 12.2163C22.4621 14.7626 21.0058 18.2788 18.6633 21.3938ZM11.4621 15.2163C11.4621 13.8902 10.9353 12.6185 9.99763 11.6808C9.05995 10.7431 7.78818 10.2163 6.4621 10.2163C5.93166 10.2163 5.42296 10.427 5.04788 10.8021C4.67281 11.1772 4.4621 11.6859 4.4621 12.2163C4.4621 13.5424 4.98888 14.8142 5.92656 15.7518C6.86425 16.6895 8.13601 17.2163 9.4621 17.2163C9.99253 17.2163 10.5012 17.0056 10.8763 16.6305C11.2514 16.2554 11.4621 15.7467 11.4621 15.2163ZM6.4621 12.2163C7.25775 12.2163 8.02081 12.5324 8.58342 13.095C9.14603 13.6576 9.4621 14.4207 9.4621 15.2163C8.66645 15.2163 7.90339 14.9002 7.34078 14.3376C6.77817 13.775 6.4621 13.012 6.4621 12.2163ZM18.4621 10.2163C17.136 10.2163 15.8642 10.7431 14.9266 11.6808C13.9889 12.6185 13.4621 13.8902 13.4621 15.2163C13.4621 15.7467 13.6728 16.2554 14.0479 16.6305C14.423 17.0056 14.9317 17.2163 15.4621 17.2163C16.1187 17.2163 16.7689 17.087 17.3755 16.8357C17.9821 16.5844 18.5333 16.2161 18.9976 15.7518C19.4619 15.2875 19.8302 14.7364 20.0815 14.1297C20.3328 13.5231 20.4621 12.8729 20.4621 12.2163C20.4621 11.6859 20.2514 11.1772 19.8763 10.8021C19.5012 10.427 18.9925 10.2163 18.4621 10.2163ZM15.4621 15.2163C15.4621 14.4207 15.7782 13.6576 16.3408 13.095C16.9034 12.5324 17.6664 12.2163 18.4621 12.2163C18.4621 13.012 18.146 13.775 17.5834 14.3376C17.0208 14.9002 16.2577 15.2163 15.4621 15.2163ZM15.4621 21.2163C15.4621 21.4815 15.3567 21.7359 15.1692 21.9234C14.9817 22.111 14.7273 22.2163 14.4621 22.2163H10.4621C10.1969 22.2163 9.94253 22.111 9.75499 21.9234C9.56745 21.7359 9.4621 21.4815 9.4621 21.2163C9.4621 20.9511 9.56745 20.6967 9.75499 20.5092C9.94253 20.3217 10.1969 20.2163 10.4621 20.2163H14.4621C14.7273 20.2163 14.9817 20.3217 15.1692 20.5092C15.3567 20.6967 15.4621 20.9511 15.4621 21.2163Z" fill="black"/>
</svg>
