<svg width="64" height="75" viewBox="0 0 64 75" fill="none" xmlns="http://www.w3.org/2000/svg">
<path d="M32 0C23.5161 0.00974785 15.3824 3.39935 9.3833 9.42519C3.38424 15.451 0.00970452 23.621 0 32.1429C0 40.1786 4.18667 50.5781 11.2033 59.933C18.2633 69.3583 26.0367 75 32 75C37.9633 75 45.7367 69.3717 52.7967 59.933C59.8133 50.558 64 40.1786 64 32.1429C63.9903 23.621 60.6158 15.451 54.6167 9.42519C48.6176 3.39935 40.484 0.00974785 32 0ZM48.5367 56.7254C42.7467 64.4498 36.1033 69.6429 32 69.6429C27.8967 69.6429 21.2533 64.4498 15.4633 56.7254C9.21667 48.3817 5.33333 38.9632 5.33333 32.1429C5.33333 25.0388 8.14285 18.2258 13.1438 13.2025C18.1448 8.1792 24.9276 5.35714 32 5.35714C39.0724 5.35714 45.8552 8.1792 50.8562 13.2025C55.8572 18.2258 58.6667 25.0388 58.6667 32.1429C58.6667 38.9632 54.7833 48.3817 48.5367 56.7254ZM29.3333 40.1786C29.3333 36.6266 27.9286 33.22 25.4281 30.7084C22.9276 28.1967 19.5362 26.7857 16 26.7857C14.5855 26.7857 13.229 27.3501 12.2288 28.3548C11.2286 29.3594 10.6667 30.7221 10.6667 32.1429C10.6667 35.6949 12.0714 39.1014 14.5719 41.613C17.0724 44.1247 20.4638 45.5357 24 45.5357C25.4145 45.5357 26.771 44.9713 27.7712 43.9666C28.7714 42.962 29.3333 41.5994 29.3333 40.1786ZM16 32.1429C18.1217 32.1429 20.1566 32.9895 21.6569 34.4965C23.1571 36.0035 24 38.0474 24 40.1786C21.8783 40.1786 19.8434 39.332 18.3431 37.825C16.8429 36.318 16 34.2741 16 32.1429ZM48 26.7857C44.4638 26.7857 41.0724 28.1967 38.5719 30.7084C36.0714 33.22 34.6667 36.6266 34.6667 40.1786C34.6667 41.5994 35.2286 42.962 36.2288 43.9666C37.229 44.9713 38.5855 45.5357 40 45.5357C41.751 45.5357 43.4848 45.1893 45.1024 44.5162C46.7201 43.8432 48.19 42.8567 49.4281 41.613C50.6662 40.3694 51.6483 38.893 52.3184 37.2681C52.9885 35.6432 53.3333 33.9016 53.3333 32.1429C53.3333 30.7221 52.7714 29.3594 51.7712 28.3548C50.771 27.3501 49.4145 26.7857 48 26.7857ZM40 40.1786C40 38.0474 40.8429 36.0035 42.3431 34.4965C43.8434 32.9895 45.8783 32.1429 48 32.1429C48 34.2741 47.1571 36.318 45.6569 37.825C44.1566 39.332 42.1217 40.1786 40 40.1786ZM40 56.25C40 56.9604 39.7191 57.6417 39.219 58.144C38.7189 58.6464 38.0406 58.9286 37.3333 58.9286H26.6667C25.9594 58.9286 25.2811 58.6464 24.781 58.144C24.281 57.6417 24 56.9604 24 56.25C24 55.5396 24.281 54.8583 24.781 54.356C25.2811 53.8536 25.9594 53.5714 26.6667 53.5714H37.3333C38.0406 53.5714 38.7189 53.8536 39.219 54.356C39.7191 54.8583 40 55.5396 40 56.25Z" fill="#D5DA00"/>
</svg>
