<svg width="79" height="79" viewBox="0 0 79 79" fill="none" xmlns="http://www.w3.org/2000/svg">
<path d="M61.8312 41.2158L44.2571 34.7471L37.7873 17.1625C37.4042 16.1218 36.711 15.2237 35.8013 14.5892C34.8916 13.9548 33.8091 13.6147 32.7 13.6147C31.5909 13.6147 30.5084 13.9548 29.5987 14.5892C28.689 15.2237 27.9958 16.1218 27.6127 17.1625L21.1361 34.7267L3.5484 41.1954C2.50754 41.5784 1.60925 42.2715 0.974732 43.1811C0.340212 44.0906 0 45.1729 0 46.2818C0 47.3907 0.340212 48.473 0.974732 49.3826C1.60925 50.2921 2.50754 50.9852 3.5484 51.3682L21.1122 57.8778L27.582 75.4522C27.9652 76.4929 28.6584 77.391 29.5681 78.0254C30.4778 78.6598 31.5602 79 32.6694 79C33.7785 79 34.8609 78.6598 35.7706 78.0254C36.6803 77.391 37.3735 76.4929 37.7567 75.4522L44.2265 57.8812L61.8141 51.4125C62.855 51.0294 63.7533 50.3364 64.3878 49.4268C65.0223 48.5173 65.3625 47.435 65.3625 46.3261C65.3625 45.2171 65.0223 44.1349 64.3878 43.2253C63.7533 42.3158 62.855 41.6227 61.8141 41.2396L61.8312 41.2158ZM42.357 52.7709C41.6209 53.0411 40.9523 53.4682 40.3978 54.0226C39.8433 54.577 39.4162 55.2454 39.146 55.9814L32.6762 73.5014L26.22 55.9678C25.9496 55.2357 25.5237 54.5708 24.9718 54.0189C24.4198 53.467 23.7548 53.0413 23.0225 52.7709L5.49956 46.3022L23.0225 39.8335C23.7548 39.5632 24.4198 39.1374 24.9718 38.5855C25.5237 38.0337 25.9496 37.3688 26.22 36.6366L32.6898 19.1167L39.1596 36.6366C39.4298 37.3727 39.857 38.0411 40.4115 38.5955C40.966 39.1499 41.6345 39.577 42.3707 39.8472L59.8936 46.3158L42.357 52.7709ZM43.5863 10.8946C43.5863 10.1723 43.8733 9.47951 44.3842 8.96872C44.8951 8.45794 45.588 8.17098 46.3104 8.17098H51.7587V2.72366C51.7587 2.0013 52.0457 1.30853 52.5566 0.797742C53.0674 0.286956 53.7603 0 54.4828 0C55.2053 0 55.8982 0.286956 56.4091 0.797742C56.92 1.30853 57.207 2.0013 57.207 2.72366V8.17098H62.6552C63.3777 8.17098 64.0706 8.45794 64.5815 8.96872C65.0923 9.47951 65.3793 10.1723 65.3793 10.8946C65.3793 11.617 65.0923 12.3098 64.5815 12.8206C64.0706 13.3313 63.3777 13.6183 62.6552 13.6183H57.207V19.0656C57.207 19.788 56.92 20.4808 56.4091 20.9915C55.8982 21.5023 55.2053 21.7893 54.4828 21.7893C53.7603 21.7893 53.0674 21.5023 52.5566 20.9915C52.0457 20.4808 51.7587 19.788 51.7587 19.0656V13.6183H46.3104C45.588 13.6183 44.8951 13.3313 44.3842 12.8206C43.8733 12.3098 43.5863 11.617 43.5863 10.8946ZM79 27.2366C79 27.959 78.713 28.6517 78.2021 29.1625C77.6912 29.6733 76.9984 29.9603 76.2759 29.9603H73.5517V32.6839C73.5517 33.4063 73.2647 34.0991 72.7539 34.6098C72.243 35.1206 71.5501 35.4076 70.8276 35.4076C70.1051 35.4076 69.4122 35.1206 68.9014 34.6098C68.3905 34.0991 68.1035 33.4063 68.1035 32.6839V29.9603H65.3793C64.6569 29.9603 63.964 29.6733 63.4531 29.1625C62.9422 28.6517 62.6552 27.959 62.6552 27.2366C62.6552 26.5142 62.9422 25.8215 63.4531 25.3107C63.964 24.7999 64.6569 24.5129 65.3793 24.5129H68.1035V21.7893C68.1035 21.0669 68.3905 20.3742 68.9014 19.8634C69.4122 19.3526 70.1051 19.0656 70.8276 19.0656C71.5501 19.0656 72.243 19.3526 72.7539 19.8634C73.2647 20.3742 73.5517 21.0669 73.5517 21.7893V24.5129H76.2759C76.9984 24.5129 77.6912 24.7999 78.2021 25.3107C78.713 25.8215 79 26.5142 79 27.2366Z" fill="#D5DA00"/>
</svg>
